<svg width="20" height="17" viewBox="0 0 20 17" fill="none" xmlns="http://www.w3.org/2000/svg">
<g opacity="0.3">
<path d="M15.2613 0.708374H4.73801C2.58134 0.708374 0.833008 2.4567 0.833008 4.61337V12.3867C0.833008 14.5434 2.58134 16.2917 4.73801 16.2917H15.2613C17.418 16.2917 19.1663 14.5434 19.1663 12.3867V4.61337C19.1663 2.4567 17.418 0.708374 15.2613 0.708374Z" fill="#3A2414"/>
</g>
<path d="M9.99969 9.41669C9.26984 9.41383 8.56359 9.1579 8.00135 8.69252L4.88469 6.11669C4.7449 5.99513 4.65912 5.82302 4.64623 5.63822C4.63333 5.45341 4.69438 5.27106 4.81594 5.13127C4.9375 4.99148 5.10961 4.9057 5.29441 4.89281C5.47921 4.87992 5.66156 4.94096 5.80135 5.06252L8.89969 7.63835C9.21532 7.90403 9.61463 8.04972 10.0272 8.04972C10.4397 8.04972 10.8391 7.90403 11.1547 7.63835L14.1705 5.08085C14.3046 4.97572 14.4733 4.92489 14.6432 4.93848C14.813 4.95207 14.9715 5.02907 15.0872 5.15419C15.2044 5.29359 15.2624 5.47335 15.2487 5.65497C15.235 5.83659 15.1507 6.00562 15.0139 6.12585L11.998 8.68335C11.439 9.15543 10.7314 9.41512 9.99969 9.41669Z" fill="#3A2414"/>
</svg>
