<svg width="20" height="21" viewBox="0 0 20 21" fill="none" xmlns="http://www.w3.org/2000/svg">
<path opacity="0.4" fill-rule="evenodd" clip-rule="evenodd" d="M13.854 13.887C13.854 13.887 13.854 13.887 13.854 13.887L12.8639 15.6693C12.7784 15.8232 12.7784 16.0101 12.8639 16.164L13.854 17.9463C13.854 17.9463 13.854 17.9464 13.854 17.9463C13.9439 18.108 14.1143 18.2083 14.2993 18.2083H16.2052C16.3901 18.2083 16.5605 18.1081 16.6504 17.9464C16.6504 17.9464 16.6504 17.9464 16.6504 17.9464L17.6406 16.164C17.7261 16.0102 17.7261 15.8232 17.6406 15.6694L16.6504 13.887C16.6504 13.887 16.6504 13.887 16.6504 13.887C16.5605 13.7253 16.3901 13.625 16.2052 13.625H14.2993C14.1143 13.625 13.9439 13.7253 13.854 13.887ZM12.7614 13.2798C13.0717 12.7214 13.6603 12.375 14.2993 12.375H16.2052C16.8442 12.375 17.4327 12.7214 17.743 13.2798L18.7333 15.0623C18.7333 15.0623 18.7333 15.0623 18.7333 15.0623C19.0285 15.5936 19.0285 16.2397 18.7333 16.771C18.7333 16.771 18.7333 16.771 18.7333 16.771L17.7431 18.5534C17.4328 19.1119 16.8442 19.4583 16.2052 19.4583H14.2993C13.6603 19.4583 13.0717 19.1119 12.7614 18.5535L11.7712 16.771C11.7712 16.771 11.7712 16.771 11.7712 16.771C11.476 16.2397 11.476 15.5937 11.7712 15.0623C11.7712 15.0623 11.7712 15.0623 11.7712 15.0623L12.7614 13.2798Z" fill="#3A2414"/>
<path d="M15.6703 15.1969C15.2728 14.965 14.7625 15.0993 14.5306 15.4968C14.2987 15.8944 14.433 16.4046 14.8306 16.6365L14.8366 16.64C15.2341 16.8719 15.7444 16.7376 15.9763 16.3401C16.2082 15.9426 16.0739 15.4323 15.6763 15.2004L15.6703 15.1969Z" fill="#3A2414"/>
<path opacity="0.4" d="M10.0003 2.375C7.8142 2.375 6.04199 4.14721 6.04199 6.33333C6.04199 8.51946 7.8142 10.2917 10.0003 10.2917C12.1865 10.2917 13.9587 8.51946 13.9587 6.33333C13.9587 4.14721 12.1865 2.375 10.0003 2.375Z" fill="#3A2414"/>
<path d="M12.7708 11.5418C12.317 11.8093 11.9334 12.1958 11.6684 12.6727L10.6781 14.4553C10.1732 15.3641 10.1733 16.4692 10.6782 17.3781L11.2213 18.3558C11.2811 18.4634 11.2076 18.5964 11.0846 18.6017C9.04125 18.6899 6.87704 18.5275 5.27863 18.1146C4.33537 17.8709 3.759 17.2104 3.57296 16.3998C3.3947 15.6232 3.58142 14.7592 4.01668 14.0193L4.56816 13.082C5.12965 12.1276 6.15428 11.5416 7.26158 11.5416H12.7354C12.7472 11.5416 12.759 11.5417 12.7708 11.5418Z" fill="#3A2414"/>
</svg>
